<?xml version="1.0" standalone="no"?>
<!DOCTYPE svg PUBLIC "-//W3C//DTD SVG 20010904//EN"
 "http://www.w3.org/TR/2001/REC-SVG-20010904/DTD/svg10.dtd">
<svg version="1.0" xmlns="http://www.w3.org/2000/svg"
 width="572.000000pt" height="353.000000pt" viewBox="0 0 572.000000 353.000000"
 preserveAspectRatio="xMidYMid meet">

<g transform="translate(0.000000,353.000000) scale(0.100000,-0.100000)"
fill="#000000" stroke="none">
<path d="M2415 3511 c-267 -6 -295 -8 -353 -29 -104 -37 -172 -81 -252 -161
-82 -83 -144 -190 -175 -306 -20 -74 -30 -301 -20 -460 l7 -118 109 7 c61 3
146 3 190 0 l80 -7 35 -70 c19 -38 53 -91 75 -119 23 -27 40 -51 37 -53 -2 -3
-124 -8 -271 -11 l-267 -7 0 -74 0 -73 183 0 c101 0 252 -3 335 -7 l152 -6
-40 -43 c-45 -49 -85 -124 -95 -177 l-7 -37 -167 0 c-91 0 -210 -3 -263 -7
l-98 -6 0 -37 c0 -142 80 -318 196 -433 63 -62 126 -98 244 -139 l95 -33 732
-3 c719 -3 734 -3 814 18 138 35 246 97 335 191 63 67 97 125 129 220 29 83
32 124 40 427 l5 212 -175 0 c-135 0 -175 3 -174 13 5 29 -40 115 -65 123 -11
4 -28 16 -39 28 -11 12 -6 -2 12 -34 27 -51 55 -139 46 -148 -2 -2 -9 16 -14
39 -12 49 -51 127 -88 177 -14 18 -22 36 -18 40 4 4 121 7 261 7 217 0 255 2
258 15 3 8 6 44 8 80 l3 65 -50 1 c-27 1 -183 2 -345 3 -290 1 -295 1 -265 19
43 27 95 89 95 115 0 12 3 33 7 46 5 19 3 22 -7 16 -9 -5 -6 5 6 26 l20 34
260 1 259 1 -1 89 c0 70 -6 105 -27 163 -63 175 -159 284 -315 361 -124 61
-140 62 -667 65 -264 1 -610 -1 -770 -4z m1302 -184 c84 -22 136 -50 193 -103
47 -44 107 -148 112 -195 l3 -24 -189 -3 -188 -2 -47 43 c-62 58 -128 102
-192 129 -48 20 -72 22 -221 23 -93 0 -168 3 -168 8 0 4 -18 7 -40 7 -31 0
-40 4 -41 18 0 10 -3 12 -6 5 -5 -15 -53 -6 -66 11 -5 7 -12 5 -22 -8 -16 -21
-35 -13 -35 15 0 10 -4 19 -10 19 -5 0 -10 -9 -10 -19 0 -25 -8 -30 -54 -33
-21 -1 -40 -6 -42 -10 -3 -4 -33 -8 -67 -8 -161 -1 -262 -34 -370 -122 -147
-119 -227 -272 -262 -500 -3 -21 -12 -44 -20 -52 -8 -8 -15 -19 -15 -24 0 -6
-25 -12 -56 -14 -65 -4 -71 1 -105 82 -21 49 -24 70 -24 190 1 210 42 328 152
436 82 82 182 133 279 142 38 4 380 7 759 6 604 -1 698 -3 752 -17z m-321
-320 c39 -20 92 -79 100 -112 10 -39 -4 -76 -44 -116 -33 -33 -45 -38 -102
-44 -36 -3 -222 -5 -415 -3 -389 3 -388 3 -436 -64 -29 -40 -31 -113 -4 -149
50 -66 32 -63 455 -69 419 -6 425 -7 512 -67 23 -15 61 -54 84 -85 165 -224
80 -563 -171 -682 l-56 -26 -437 0 -437 0 -52 24 c-64 30 -88 65 -88 127 0 61
20 96 70 121 39 20 49 21 433 14 388 -7 393 -7 437 14 108 52 114 186 11 249
-34 22 -44 22 -408 25 -403 3 -404 3 -499 62 -51 32 -120 112 -154 180 -28 56
-30 66 -30 179 0 119 0 120 39 199 41 82 119 172 178 202 79 41 107 43 553 40
372 -2 434 -5 461 -19z m244 -251 c0 -2 -8 -10 -17 -17 -16 -13 -17 -12 -4 4
13 16 21 21 21 13z m-1727 -293 c-7 -2 -19 -2 -25 0 -7 3 -2 5 12 5 14 0 19
-2 13 -5z m313 -913 c70 -66 148 -101 244 -108 54 -4 68 -8 50 -13 l-25 -7 27
-1 c15 -1 39 -6 53 -11 15 -6 70 -15 123 -21 53 -6 103 -14 112 -19 8 -4 31
-11 50 -14 19 -3 53 -12 75 -20 22 -9 47 -15 56 -16 9 0 22 -7 29 -14 6 -8 30
-17 53 -19 23 -2 -188 -4 -470 -5 -502 -2 -513 -2 -570 20 -77 28 -150 99
-196 189 -60 115 -68 109 150 109 l186 0 53 -50z m402 -127 c-10 -2 -26 -2
-35 0 -10 3 -2 5 17 5 19 0 27 -2 18 -5z"/>
<path d="M682 651 c-93 -32 -142 -97 -142 -187 0 -101 52 -147 203 -178 43 -9
87 -21 98 -27 31 -16 20 -51 -23 -72 -36 -18 -41 -18 -95 -2 -32 9 -74 27 -93
39 l-35 23 -34 -49 c-33 -48 -33 -49 -15 -69 23 -26 97 -64 143 -74 64 -14
157 -8 197 13 103 53 150 183 95 260 -30 43 -77 65 -184 87 -90 18 -117 33
-117 64 0 58 101 69 186 22 l52 -30 37 57 c34 53 35 57 18 70 -40 31 -163 72
-213 72 -14 -1 -49 -9 -78 -19z"/>
<path d="M1250 653 c-115 -3 -166 -7 -172 -16 -11 -16 -10 -89 1 -106 7 -11
26 -13 90 -8 l81 6 0 -204 c0 -198 7 -250 33 -267 20 -13 84 -9 96 6 7 8 13
83 15 202 2 104 5 204 5 222 l1 32 68 1 c112 2 117 5 117 74 l0 60 -85 0 c-47
1 -159 -1 -250 -2z"/>
<path d="M1802 628 c-59 -98 -218 -443 -242 -529 -11 -37 4 -49 60 -49 54 0
70 13 95 78 l17 42 143 0 143 0 12 -37 c23 -73 35 -83 96 -83 71 0 75 12 36
98 -17 37 -39 90 -50 117 -29 76 -175 379 -187 387 -5 4 -31 8 -57 8 -42 0
-48 -3 -66 -32z m139 -305 c8 -23 8 -23 -76 -23 l-85 0 29 63 c16 34 35 78 42
96 l13 35 34 -75 c19 -40 38 -84 43 -96z"/>
<path d="M2292 647 c-17 -20 -20 -544 -3 -574 16 -31 85 -33 101 -2 7 12 11
85 11 187 l1 167 29 -35 c17 -19 82 -99 145 -177 116 -144 136 -163 173 -163
49 0 51 12 51 304 0 208 -3 276 -13 290 -11 15 -22 17 -71 11 l-58 -7 7 -147
c3 -80 8 -156 11 -168 6 -29 -7 -30 -24 -2 -30 47 -157 189 -225 251 -79 71
-116 89 -135 65z"/>
<path d="M2924 646 c-18 -14 -19 -26 -16 -244 5 -303 9 -333 45 -350 16 -8 40
-11 53 -8 44 11 48 38 35 243 -6 104 -11 224 -11 269 0 49 -5 85 -12 92 -16
16 -70 15 -94 -2z"/>
<path d="M3296 653 c-67 -2 -126 -8 -133 -15 -10 -8 -13 -71 -13 -288 0 -256
1 -278 18 -293 24 -22 65 -21 85 1 14 15 17 40 17 120 l0 102 131 0 132 0 -7
46 c-3 26 -6 53 -6 60 0 11 -26 14 -125 14 l-125 0 0 49 c0 27 -3 56 -6 65 -5
14 12 16 150 16 l156 0 0 65 0 65 -77 -2 c-43 -1 -132 -4 -197 -5z"/>
<path d="M3646 644 c-3 -9 -6 -136 -6 -284 0 -240 2 -270 18 -289 16 -21 23
-22 197 -19 l180 3 3 63 3 62 -134 0 c-114 0 -136 2 -141 16 -3 9 -6 112 -6
230 l0 214 -26 10 c-39 15 -81 12 -88 -6z"/>
<path d="M4297 649 c-91 -22 -165 -82 -203 -164 -31 -65 -33 -189 -5 -251 45
-99 147 -172 253 -182 51 -4 66 -1 122 27 80 39 148 112 172 184 22 66 22 173
-1 217 -61 118 -221 198 -338 169z m145 -148 c56 -35 78 -74 78 -134 0 -56
-49 -134 -100 -160 -43 -22 -120 -16 -162 14 -99 71 -79 237 34 292 50 25 98
21 150 -12z"/>
<path d="M4693 653 c-13 -2 -23 -11 -23 -19 0 -15 61 -212 106 -344 14 -41 37
-110 50 -152 21 -66 28 -78 47 -78 12 0 31 -3 43 -6 18 -5 24 6 59 123 21 70
44 148 50 172 l12 45 31 -90 c17 -49 43 -123 59 -164 l29 -75 39 0 c39 0 40 0
66 65 53 134 153 500 139 514 -5 5 -31 11 -58 14 -62 6 -60 10 -111 -188 -22
-84 -42 -154 -44 -157 -3 -2 -7 11 -11 28 -14 69 -87 289 -102 303 -26 26 -56
5 -91 -65 -18 -35 -40 -95 -49 -134 -8 -38 -20 -90 -27 -114 l-11 -45 -27 110
c-15 60 -38 143 -52 184 l-24 75 -39 1 c-22 1 -49 0 -61 -3z"/>
</g>
</svg>
